<svg xmlns="http://www.w3.org/2000/svg" width="340" height="60" viewBox="0 0 340 60">
  <g id="Buttons" transform="translate(-218 -518)">
    <g id="Google_Play" data-name="Google Play" transform="translate(395.881 518.126)">
      <rect id="BG" width="162" height="60" rx="30" transform="translate(0.119 -0.126)"/>
      <g id="Group_1095" data-name="Group 1095" transform="translate(61.813 16.874)">
        <path id="Download_on" data-name="Download on" d="M5.229-3.06H6.291V-.909A3.265,3.265,0,0,1,3.744.072,3.212,3.212,0,0,1,1.409-.846,3.108,3.108,0,0,1,.468-3.168a3.136,3.136,0,0,1,.958-2.34,3.2,3.2,0,0,1,2.317-.936A3.3,3.3,0,0,1,6-5.652l-.567.81a2.208,2.208,0,0,0-.742-.437A2.811,2.811,0,0,0,3.825-5.4a2.235,2.235,0,0,0-1.6.616,2.133,2.133,0,0,0-.648,1.62A2.135,2.135,0,0,0,2.2-1.553a2.117,2.117,0,0,0,1.526.608,2.721,2.721,0,0,0,1.5-.387ZM12-1.953H8.244a1.091,1.091,0,0,0,.477.842,1.674,1.674,0,0,0,1.008.319A1.672,1.672,0,0,0,11.1-1.359l.576.63a2.678,2.678,0,0,1-2.016.8A2.4,2.4,0,0,1,7.942-.6a2.364,2.364,0,0,1-.707-1.8,2.327,2.327,0,0,1,.72-1.8,2.416,2.416,0,0,1,1.7-.666,2.456,2.456,0,0,1,1.66.589A2.031,2.031,0,0,1,12-2.646ZM8.244-2.745h2.745a1.154,1.154,0,0,0-.378-.927A1.382,1.382,0,0,0,9.679-4a1.6,1.6,0,0,0-.995.338A1.09,1.09,0,0,0,8.244-2.745ZM14.31-3.978v2.43A.79.79,0,0,0,14.49-1a.639.639,0,0,0,.5.2.858.858,0,0,0,.621-.315l.414.711a1.718,1.718,0,0,1-1.175.477,1.511,1.511,0,0,1-1.1-.446,1.606,1.606,0,0,1-.455-1.2v-2.4h-.6v-.81h.6v-1.5H14.31v1.5h1.26v.81ZM20.3,0H19.3V-4.788H20.3Zm-.945-5.742a.615.615,0,0,1-.189-.45.615.615,0,0,1,.189-.45.615.615,0,0,1,.45-.189.615.615,0,0,1,.45.189.614.614,0,0,1,.189.45.614.614,0,0,1-.189.45.614.614,0,0,1-.45.189A.614.614,0,0,1,19.359-5.742ZM23-3.978v2.43a.79.79,0,0,0,.18.545.639.639,0,0,0,.5.2.858.858,0,0,0,.621-.315l.414.711a1.718,1.718,0,0,1-1.175.477,1.511,1.511,0,0,1-1.1-.446A1.606,1.606,0,0,1,22-1.575v-2.4h-.6v-.81H22v-1.5H23v1.5h1.26v.81ZM29.11-1.265a1.454,1.454,0,0,0,1.084.437,1.454,1.454,0,0,0,1.084-.437,1.546,1.546,0,0,0,.428-1.129,1.546,1.546,0,0,0-.428-1.13,1.454,1.454,0,0,0-1.084-.437,1.454,1.454,0,0,0-1.084.437,1.546,1.546,0,0,0-.427,1.13A1.546,1.546,0,0,0,29.11-1.265Zm2.884.621a2.45,2.45,0,0,1-1.8.716,2.45,2.45,0,0,1-1.8-.716,2.373,2.373,0,0,1-.72-1.751,2.373,2.373,0,0,1,.72-1.751,2.45,2.45,0,0,1,1.8-.715,2.45,2.45,0,0,1,1.8.715,2.373,2.373,0,0,1,.72,1.751A2.373,2.373,0,0,1,31.995-.644Zm2.871-1.949V0H33.858V-4.788h1.008v.873a1.794,1.794,0,0,1,.671-.693,1.785,1.785,0,0,1,.922-.252,1.78,1.78,0,0,1,1.31.495,1.927,1.927,0,0,1,.5,1.431V0H37.26V-2.628q0-1.323-1.1-1.323a1.319,1.319,0,0,0-.909.346A1.289,1.289,0,0,0,34.866-2.592Z" transform="translate(0 9)" fill="#f6f6f9" opacity="0.7"/>
        <path id="play" d="M4.381-9.087A4.67,4.67,0,0,1,7.4-8.294,3.005,3.005,0,0,1,8.346-5.85a2.9,2.9,0,0,1-.969,2.418,4.749,4.749,0,0,1-2.971.767H2.8V0H1.261V-9.087Zm.2,5.031a2.373,2.373,0,0,0,1.736-.488,2.005,2.005,0,0,0,.461-1.43,1.482,1.482,0,0,0-.585-1.333A3.371,3.371,0,0,0,4.355-7.7H2.8v3.64ZM11.4,0H9.945V-9.646H11.4ZM19.11,0H17.784V-.923A2.845,2.845,0,0,1,15.483.1,2.64,2.64,0,0,1,13.7-.507a2.046,2.046,0,0,1-.708-1.632,1.717,1.717,0,0,1,.754-1.527,3.611,3.611,0,0,1,2.041-.507h1.885v-.26q0-1.378-1.534-1.378a3.6,3.6,0,0,0-2,.7l-.65-.91a4.477,4.477,0,0,1,2.86-1,3.1,3.1,0,0,1,2,.617,2.338,2.338,0,0,1,.774,1.944ZM17.654-2.574v-.585H16.016q-1.573,0-1.573.988a.879.879,0,0,0,.39.774,1.905,1.905,0,0,0,1.086.266,1.97,1.97,0,0,0,1.215-.39A1.248,1.248,0,0,0,17.654-2.574Zm4.277,5.33a2.5,2.5,0,0,1-1.716-.689L20.878.884a1.372,1.372,0,0,0,.942.429,1,1,0,0,0,.793-.351A1.144,1.144,0,0,0,22.919.2q0-.182-2.8-7.111h1.56l2.067,5.1,2.067-5.1h1.56L24.024,1.3a2.5,2.5,0,0,1-.858,1.066A2.111,2.111,0,0,1,21.931,2.756ZM35.042-7.891a2.014,2.014,0,0,0-1.1.273.912.912,0,0,0-.429.826.96.96,0,0,0,.429.845,6.48,6.48,0,0,0,1.826.631,5.021,5.021,0,0,1,2.106.949,2.248,2.248,0,0,1,.708,1.8,2.385,2.385,0,0,1-.9,1.931A3.575,3.575,0,0,1,35.334.1a5.527,5.527,0,0,1-3.783-1.469l.962-1.157a4.331,4.331,0,0,0,2.86,1.2,1.953,1.953,0,0,0,1.176-.319,1,1,0,0,0,.436-.845.949.949,0,0,0-.41-.819,4.306,4.306,0,0,0-1.41-.533,12.686,12.686,0,0,1-1.521-.442,3.436,3.436,0,0,1-.923-.526,2.2,2.2,0,0,1-.806-1.872,2.279,2.279,0,0,1,.917-1.943A3.692,3.692,0,0,1,35.1-9.308a5.437,5.437,0,0,1,1.729.286,4.52,4.52,0,0,1,1.482.806l-.819,1.157a3.1,3.1,0,0,0-1.092-.6A4.207,4.207,0,0,0,35.042-7.891Zm6.871,2.145v3.51a1.141,1.141,0,0,0,.26.786.923.923,0,0,0,.728.293,1.24,1.24,0,0,0,.9-.455l.6,1.027A2.482,2.482,0,0,1,42.7.1a2.183,2.183,0,0,1-1.586-.644,2.319,2.319,0,0,1-.657-1.736V-5.746h-.871v-1.17h.871V-9.087h1.456v2.171h1.82v1.17Zm5.207,3.92a2.1,2.1,0,0,0,1.566.631,2.1,2.1,0,0,0,1.567-.631,2.233,2.233,0,0,0,.618-1.631,2.233,2.233,0,0,0-.618-1.632,2.1,2.1,0,0,0-1.567-.63,2.1,2.1,0,0,0-1.566.63A2.233,2.233,0,0,0,46.5-3.458,2.233,2.233,0,0,0,47.119-1.827Zm4.167.9A3.539,3.539,0,0,1,48.685.1a3.539,3.539,0,0,1-2.6-1.034,3.428,3.428,0,0,1-1.04-2.528,3.428,3.428,0,0,1,1.04-2.529,3.539,3.539,0,0,1,2.6-1.034,3.539,3.539,0,0,1,2.6,1.034,3.428,3.428,0,0,1,1.04,2.529A3.428,3.428,0,0,1,51.285-.93ZM57.6-5.551a1.932,1.932,0,0,0-1.625.7,2.99,2.99,0,0,0-.546,1.885V0H53.976V-6.916h1.456v1.391a3.014,3.014,0,0,1,.956-1.066,2.3,2.3,0,0,1,1.28-.429l.013,1.469Zm7.969,2.73H60.151a1.576,1.576,0,0,0,.689,1.215,2.418,2.418,0,0,0,1.456.462,2.415,2.415,0,0,0,1.976-.819l.832.91A3.868,3.868,0,0,1,62.192.1a3.466,3.466,0,0,1-2.477-.968,3.415,3.415,0,0,1-1.021-2.6,3.361,3.361,0,0,1,1.04-2.593,3.49,3.49,0,0,1,2.451-.962,3.548,3.548,0,0,1,2.4.852,2.934,2.934,0,0,1,.988,2.347ZM60.151-3.965h3.965A1.667,1.667,0,0,0,63.57-5.3a2,2,0,0,0-1.346-.468,2.3,2.3,0,0,0-1.437.488A1.574,1.574,0,0,0,60.151-3.965Z" transform="translate(0.175 23.767)" fill="#f6f6f9"/>
      </g>
      <path id="logo" d="M1.1,25.036h0A1.888,1.888,0,0,1,0,23.324V1.715A1.89,1.89,0,0,1,1.108,0l12.93,12.516L1.1,25.035Zm2.9-.651h0l11.147-10.79,2.988,2.892-14.134,7.9ZM19.554,15.7h0l-3.286-3.181,3.284-3.179L22.536,11a1.869,1.869,0,0,1,.022,3.014l-3,1.679Zm-4.4-4.26h0L4.011.652,18.139,8.547l-2.985,2.889Z" transform="translate(21.406 17.874)" fill="#f6f6f9"/>
    </g>
    <g id="Apple_Store" data-name="Apple Store" transform="translate(218 518)">
      <rect id="BG-2" data-name="BG" width="162.869" height="58.686" rx="29.343"/>
      <g id="Apple_g" data-name="Apple g" transform="translate(24.035 16)">
        <path id="Download_on_the" data-name="Download on the" d="M3.033-6.291a3.743,3.743,0,0,1,2.6.824,2.934,2.934,0,0,1,.909,2.291A3.084,3.084,0,0,1,5.661-.855,3.748,3.748,0,0,1,2.961,0H.873V-6.291ZM5.472-3.15Q5.472-5.31,3-5.31H1.935V-1H3.114a2.539,2.539,0,0,0,1.751-.544A2.046,2.046,0,0,0,5.472-3.15ZM8.887-1.265a1.454,1.454,0,0,0,1.085.437,1.454,1.454,0,0,0,1.084-.437,1.546,1.546,0,0,0,.427-1.129,1.546,1.546,0,0,0-.427-1.13A1.454,1.454,0,0,0,9.972-3.96a1.454,1.454,0,0,0-1.085.437,1.546,1.546,0,0,0-.427,1.13A1.546,1.546,0,0,0,8.887-1.265Zm2.884.621a2.45,2.45,0,0,1-1.8.716,2.45,2.45,0,0,1-1.8-.716,2.373,2.373,0,0,1-.72-1.751,2.373,2.373,0,0,1,.72-1.751,2.45,2.45,0,0,1,1.8-.715,2.45,2.45,0,0,1,1.8.715,2.373,2.373,0,0,1,.72,1.751A2.373,2.373,0,0,1,11.772-.644ZM15.813,0H14.661L13-4.788h1.044L15.237-1.17l1.188-3.618h1.044L18.657-1.17l1.188-3.618h1.044L19.233,0H18.081L16.947-3.276Zm6.975-2.592V0H21.78V-4.788h1.008v.873a1.794,1.794,0,0,1,.67-.693,1.785,1.785,0,0,1,.923-.252,1.78,1.78,0,0,1,1.309.495,1.927,1.927,0,0,1,.5,1.431V0H25.182V-2.628q0-1.323-1.1-1.323a1.319,1.319,0,0,0-.909.346A1.289,1.289,0,0,0,22.788-2.592ZM28.6,0H27.594V-6.678H28.6ZM31.18-1.265a1.454,1.454,0,0,0,1.085.437,1.454,1.454,0,0,0,1.084-.437,1.546,1.546,0,0,0,.427-1.129,1.546,1.546,0,0,0-.427-1.13,1.454,1.454,0,0,0-1.084-.437,1.454,1.454,0,0,0-1.085.437,1.546,1.546,0,0,0-.427,1.13A1.546,1.546,0,0,0,31.18-1.265Zm2.885.621a2.45,2.45,0,0,1-1.8.716,2.45,2.45,0,0,1-1.8-.716,2.373,2.373,0,0,1-.72-1.751,2.373,2.373,0,0,1,.72-1.751,2.45,2.45,0,0,1,1.8-.715,2.45,2.45,0,0,1,1.8.715,2.373,2.373,0,0,1,.72,1.751A2.373,2.373,0,0,1,34.065-.644ZM39.807,0h-.918V-.639A1.969,1.969,0,0,1,37.3.072a1.827,1.827,0,0,1-1.237-.423,1.417,1.417,0,0,1-.491-1.13,1.189,1.189,0,0,1,.522-1.058A2.5,2.5,0,0,1,37.5-2.889h1.305v-.18q0-.954-1.062-.954a2.49,2.49,0,0,0-1.386.486l-.45-.63a3.1,3.1,0,0,1,1.98-.693,2.146,2.146,0,0,1,1.382.427,1.618,1.618,0,0,1,.535,1.346ZM38.8-1.782v-.4H37.665q-1.089,0-1.089.684a.608.608,0,0,0,.27.536,1.319,1.319,0,0,0,.751.184,1.364,1.364,0,0,0,.842-.27A.864.864,0,0,0,38.8-1.782ZM43.164.072A2.155,2.155,0,0,1,41.58-.612a2.452,2.452,0,0,1-.675-1.8A2.357,2.357,0,0,1,41.6-4.194a2.3,2.3,0,0,1,1.651-.666,1.817,1.817,0,0,1,1.544.81V-6.678H45.8V0H44.793V-.72A1.867,1.867,0,0,1,43.164.072ZM41.913-2.372a1.5,1.5,0,0,0,.441,1.12,1.431,1.431,0,0,0,1.035.432A1.337,1.337,0,0,0,44.4-1.256a1.562,1.562,0,0,0,.414-1.12A1.643,1.643,0,0,0,44.4-3.519a1.317,1.317,0,0,0-1.017-.459,1.372,1.372,0,0,0-1.035.459A1.609,1.609,0,0,0,41.913-2.372Zm8.932,1.107a1.454,1.454,0,0,0,1.085.437,1.454,1.454,0,0,0,1.084-.437,1.546,1.546,0,0,0,.427-1.129,1.546,1.546,0,0,0-.427-1.13A1.454,1.454,0,0,0,51.93-3.96a1.454,1.454,0,0,0-1.085.437,1.546,1.546,0,0,0-.427,1.13A1.546,1.546,0,0,0,50.845-1.265Zm2.885.621a2.45,2.45,0,0,1-1.8.716,2.45,2.45,0,0,1-1.8-.716,2.373,2.373,0,0,1-.72-1.751,2.373,2.373,0,0,1,.72-1.751,2.45,2.45,0,0,1,1.8-.715,2.45,2.45,0,0,1,1.8.715,2.373,2.373,0,0,1,.72,1.751A2.373,2.373,0,0,1,53.73-.644ZM56.6-2.592V0H55.593V-4.788H56.6v.873a1.794,1.794,0,0,1,.671-.693,1.785,1.785,0,0,1,.923-.252,1.78,1.78,0,0,1,1.309.495A1.927,1.927,0,0,1,60-2.934V0H58.995V-2.628q0-1.323-1.1-1.323a1.319,1.319,0,0,0-.909.346A1.289,1.289,0,0,0,56.6-2.592Zm8.514-1.386v2.43a.79.79,0,0,0,.18.545.639.639,0,0,0,.5.2.858.858,0,0,0,.621-.315l.414.711A1.718,1.718,0,0,1,65.66.072a1.511,1.511,0,0,1-1.1-.446,1.606,1.606,0,0,1-.455-1.2v-2.4h-.6v-.81h.6v-1.5h1.008v1.5h1.26v.81Zm3.528,1.386V0H67.635V-6.669h1.008v2.754a1.6,1.6,0,0,1,.653-.693,1.85,1.85,0,0,1,.94-.252,1.78,1.78,0,0,1,1.31.495,1.927,1.927,0,0,1,.5,1.431V0H71.037V-2.628q0-1.323-1.1-1.323a1.319,1.319,0,0,0-.909.346A1.289,1.289,0,0,0,68.643-2.592Zm9.261.639H74.151a1.091,1.091,0,0,0,.477.842,1.674,1.674,0,0,0,1.008.319A1.672,1.672,0,0,0,77-1.359l.576.63a2.678,2.678,0,0,1-2.016.8A2.4,2.4,0,0,1,73.85-.6a2.364,2.364,0,0,1-.707-1.8,2.327,2.327,0,0,1,.72-1.8,2.416,2.416,0,0,1,1.7-.666,2.456,2.456,0,0,1,1.66.589A2.031,2.031,0,0,1,77.9-2.646Zm-3.753-.792H76.9a1.154,1.154,0,0,0-.378-.927A1.382,1.382,0,0,0,75.587-4a1.6,1.6,0,0,0-.994.338A1.09,1.09,0,0,0,74.151-2.745Z" transform="translate(36.965 9.364)" fill="#f6f6f9" opacity="0.7"/>
        <path id="App_Store" data-name="App Store" d="M2.548-2.067,1.638,0H0L4-9.087H5.642L9.646,0H8.008L7.1-2.067ZM6.474-3.484,4.823-7.228,3.172-3.484ZM14.4-7.02a3.287,3.287,0,0,1,2.379.962A3.411,3.411,0,0,1,17.771-3.5,3.556,3.556,0,0,1,16.79-.9,3.107,3.107,0,0,1,14.5.1,3.112,3.112,0,0,1,12.155-1.04V2.522H10.7V-6.916h1.456v1.209A2.59,2.59,0,0,1,14.4-7.02ZM12.129-3.445a2.256,2.256,0,0,0,.6,1.618,1.931,1.931,0,0,0,1.456.631,2.068,2.068,0,0,0,1.495-.624,2.166,2.166,0,0,0,.637-1.619,2.3,2.3,0,0,0-.624-1.651A1.991,1.991,0,0,0,14.2-5.746a1.91,1.91,0,0,0-1.469.656A2.35,2.35,0,0,0,12.129-3.445ZM23.14-7.02a3.287,3.287,0,0,1,2.379.962A3.411,3.411,0,0,1,26.507-3.5a3.556,3.556,0,0,1-.981,2.6,3.107,3.107,0,0,1-2.288,1A3.112,3.112,0,0,1,20.891-1.04V2.522H19.435V-6.916h1.456v1.209A2.59,2.59,0,0,1,23.14-7.02ZM20.865-3.445a2.256,2.256,0,0,0,.6,1.618,1.931,1.931,0,0,0,1.456.631,2.068,2.068,0,0,0,1.495-.624,2.166,2.166,0,0,0,.637-1.619,2.3,2.3,0,0,0-.624-1.651,1.991,1.991,0,0,0-1.5-.656,1.91,1.91,0,0,0-1.469.656A2.35,2.35,0,0,0,20.865-3.445ZM34.691-7.891a2.014,2.014,0,0,0-1.1.273.912.912,0,0,0-.429.826.96.96,0,0,0,.429.845,6.48,6.48,0,0,0,1.826.631,5.021,5.021,0,0,1,2.106.949,2.248,2.248,0,0,1,.708,1.8,2.385,2.385,0,0,1-.9,1.931A3.575,3.575,0,0,1,34.983.1,5.527,5.527,0,0,1,31.2-1.365l.962-1.157a4.331,4.331,0,0,0,2.86,1.2A1.953,1.953,0,0,0,36.2-1.645a1,1,0,0,0,.436-.845.949.949,0,0,0-.41-.819,4.306,4.306,0,0,0-1.411-.533,12.686,12.686,0,0,1-1.521-.442,3.436,3.436,0,0,1-.923-.526,2.2,2.2,0,0,1-.806-1.872,2.279,2.279,0,0,1,.916-1.943,3.692,3.692,0,0,1,2.269-.683,5.437,5.437,0,0,1,1.729.286,4.52,4.52,0,0,1,1.482.806l-.819,1.157a3.1,3.1,0,0,0-1.092-.6A4.207,4.207,0,0,0,34.691-7.891Zm6.87,2.145v3.51a1.141,1.141,0,0,0,.26.786.923.923,0,0,0,.728.293,1.24,1.24,0,0,0,.9-.455l.6,1.027a2.482,2.482,0,0,1-1.7.689,2.183,2.183,0,0,1-1.586-.644A2.319,2.319,0,0,1,40.1-2.275V-5.746h-.871v-1.17H40.1V-9.087h1.456v2.171h1.82v1.17Zm5.207,3.92a2.1,2.1,0,0,0,1.566.631A2.1,2.1,0,0,0,49.9-1.827a2.233,2.233,0,0,0,.618-1.631A2.233,2.233,0,0,0,49.9-5.09a2.1,2.1,0,0,0-1.567-.63,2.1,2.1,0,0,0-1.566.63,2.233,2.233,0,0,0-.618,1.632A2.233,2.233,0,0,0,46.768-1.827Zm4.167.9A3.539,3.539,0,0,1,48.334.1a3.539,3.539,0,0,1-2.6-1.034,3.428,3.428,0,0,1-1.04-2.528,3.428,3.428,0,0,1,1.04-2.529,3.539,3.539,0,0,1,2.6-1.034,3.539,3.539,0,0,1,2.6,1.034,3.428,3.428,0,0,1,1.04,2.529A3.428,3.428,0,0,1,50.934-.93Zm6.318-4.622a1.932,1.932,0,0,0-1.625.7,2.99,2.99,0,0,0-.546,1.885V0H53.625V-6.916h1.456v1.391a3.014,3.014,0,0,1,.956-1.066,2.3,2.3,0,0,1,1.28-.429l.013,1.469Zm7.969,2.73H59.8a1.576,1.576,0,0,0,.689,1.215,2.418,2.418,0,0,0,1.456.462,2.415,2.415,0,0,0,1.976-.819l.832.91A3.868,3.868,0,0,1,61.841.1a3.466,3.466,0,0,1-2.477-.968,3.415,3.415,0,0,1-1.021-2.6,3.361,3.361,0,0,1,1.04-2.593,3.49,3.49,0,0,1,2.451-.962,3.548,3.548,0,0,1,2.4.852,2.934,2.934,0,0,1,.988,2.347ZM59.8-3.965h3.965A1.667,1.667,0,0,0,63.219-5.3a2,2,0,0,0-1.346-.468,2.3,2.3,0,0,0-1.437.488A1.574,1.574,0,0,0,59.8-3.965Z" transform="translate(36.892 24.164)" fill="#f6f6f9"/>
        <path id="logo-2" data-name="logo" d="M6.365,25.036c-1.51,0-2.653-1.5-3.786-3.17A15.957,15.957,0,0,1,.2,15.831a10.092,10.092,0,0,1,.825-6.579A6.319,6.319,0,0,1,3.184,6.981,5.692,5.692,0,0,1,6.1,6.113h.062a6.722,6.722,0,0,1,2.467.644,4.587,4.587,0,0,0,1.519.446,4.675,4.675,0,0,0,1.468-.439,7.8,7.8,0,0,1,2.835-.727,3.811,3.811,0,0,1,.39.02,5.648,5.648,0,0,1,4.482,2.479l-.019.012A5.627,5.627,0,0,0,16.674,13.3a5.5,5.5,0,0,0,3.283,5.06l.006,0-.008.025a13.894,13.894,0,0,1-1.69,3.536C17.31,23.354,16.227,24.97,14.514,25H14.44a4.152,4.152,0,0,1-1.824-.469,4.814,4.814,0,0,0-2.149-.526,5.116,5.116,0,0,0-2.255.543,4.578,4.578,0,0,1-1.763.483ZM10.2,5.78c-.083,0-.167,0-.248-.01a5.289,5.289,0,0,1,1.3-3.874A5.443,5.443,0,0,1,14.862,0a5.61,5.61,0,0,1-1.276,4A4.576,4.576,0,0,1,10.2,5.78Z" transform="translate(0 0)" fill="#f6f6f9"/>
      </g>
    </g>
  </g>
</svg>
