<svg xmlns="http://www.w3.org/2000/svg" width="696.64" height="612.47" viewBox="0 0 696.64 612.47">
  <g id="_5124107" data-name="5124107" transform="translate(-173.712 -99.322)">
    <g id="Group_1101" data-name="Group 1101" transform="translate(173.712 234.974)">
      <path id="Path_11347" data-name="Path 11347" d="M166.269,161.21H759.31a16.245,16.245,0,0,1,16.239,16.239V583.067H150.03V177.449a16.245,16.245,0,0,1,16.239-16.239Z" transform="translate(-114.47 -161.21)" fill="#385aa3"/>
      <path id="Path_11348" data-name="Path 11348" d="M258.572,161.21h-92.3a16.245,16.245,0,0,0-16.239,16.239V583.067h530.4Z" transform="translate(-114.47 -161.21)" fill="#304f91"/>
      <path id="Path_11349" data-name="Path 11349" d="M184.568,178.786H718.535a14.635,14.635,0,0,1,14.628,14.628V548.938H169.94V193.4a14.635,14.635,0,0,1,14.628-14.628Z" transform="translate(-103.231 -151.298)" fill="#fff"/>
      <path id="Path_11350" data-name="Path 11350" d="M319.456,178.78H184.568a14.625,14.625,0,0,0-14.628,14.628V548.932H689.592L319.456,178.8Z" transform="translate(-103.231 -151.292)" fill="#f0f3fa"/>
      <path id="Path_11351" data-name="Path 11351" d="M769.794,486.982H181.446A54.155,54.155,0,0,1,127.3,432.836h0a4.036,4.036,0,0,1,4.036-4.036H819.888a4.036,4.036,0,0,1,4.036,4.036h0a54.155,54.155,0,0,1-54.146,54.146Z" transform="translate(-127.3 -10.165)" fill="#4972c7"/>
      <path id="Path_11352" data-name="Path 11352" d="M684.038,428.8H367.97l58.182,58.182H633.944a54.155,54.155,0,0,0,54.146-54.146,4.036,4.036,0,0,0-4.036-4.036Z" transform="translate(8.549 -10.165)" fill="#547cd1"/>
    </g>
    <g id="Group_1103" data-name="Group 1103" transform="translate(258.772 377.277)">
      <path id="Path_11353" data-name="Path 11353" d="M284.987,288.121l-12.5-12.969V259.961a7.792,7.792,0,0,0-7.791-7.791H189.461a7.792,7.792,0,0,0-7.791,7.791v25.36a7.792,7.792,0,0,0,7.791,7.791h93.4a2.935,2.935,0,0,0,2.112-4.975Z" transform="translate(-181.67 -252.17)" fill="#fec164"/>
      <g id="Group_1102" data-name="Group 1102" transform="translate(14.284 13.032)">
        <path id="Path_11354" data-name="Path 11354" d="M205.412,267.966a7.306,7.306,0,1,1-7.306-7.306A7.3,7.3,0,0,1,205.412,267.966Z" transform="translate(-190.8 -260.41)" fill="#fff"/>
        <path id="Path_11355" data-name="Path 11355" d="M220.632,267.806a7.306,7.306,0,1,1-7.306-7.306A7.3,7.3,0,0,1,220.632,267.806Z" transform="translate(-182.209 -260.5)" fill="#fff"/>
        <path id="Path_11356" data-name="Path 11356" d="M235.852,267.806a7.306,7.306,0,1,1-7.306-7.306A7.3,7.3,0,0,1,235.852,267.806Z" transform="translate(-173.618 -260.5)" fill="#fff"/>
      </g>
    </g>
    <g id="Group_1107" data-name="Group 1107" transform="translate(677.532 99.322)">
      <g id="Group_1104" data-name="Group 1104" transform="translate(0 29.3)">
        <path id="Path_11357" data-name="Path 11357" d="M513.436,142.141a2.434,2.434,0,0,1-1.408-.454L449.512,96.929a5.98,5.98,0,0,0-.172,1.408v65.348a6.48,6.48,0,0,0,6.477,6.477H571.071a6.48,6.48,0,0,0,6.477-6.477V98.337a6.3,6.3,0,0,0-.61-2.707l-62.047,46.011a2.451,2.451,0,0,1-1.439.485Z" transform="translate(-449.34 -91.875)" fill="#fec164"/>
        <path id="Path_11358" data-name="Path 11358" d="M572.252,93.652a6.315,6.315,0,0,0-2.237-.422H454.761a6.413,6.413,0,0,0-3.551,1.064l61.155,43.774,59.888-44.415Z" transform="translate(-448.284 -93.23)" fill="#fec164"/>
      </g>
      <g id="Group_1106" data-name="Group 1106" transform="translate(93.216 0)">
        <circle id="Ellipse_8" data-name="Ellipse 8" cx="25.469" cy="25.469" r="25.469" transform="matrix(0.231, -0.973, 0.973, 0.231, 0, 49.556)" fill="#dcedfd"/>
        <g id="Group_1105" data-name="Group 1105" transform="translate(25.808 10.69)">
          <path id="Path_11359" data-name="Path 11359" d="M535.088,105.5a4.834,4.834,0,1,1-4.834-4.834A4.827,4.827,0,0,1,535.088,105.5Z" transform="translate(-525.42 -70.421)" fill="#385aa3"/>
          <path id="Path_11360" data-name="Path 11360" d="M527.879,107.157l-2.19-20.9a4.452,4.452,0,0,1,8.855-.939,4.555,4.555,0,0,1,0,.923l-2.19,20.9a2.249,2.249,0,0,1-4.474,0Z" transform="translate(-525.282 -81.335)" fill="#385aa3"/>
        </g>
      </g>
    </g>
    <g id="Group_1108" data-name="Group 1108" transform="translate(258.788 150.947)">
      <path id="Path_11361" data-name="Path 11361" d="M334.622,229.575l-27.3-28.3v-80.93A12.843,12.843,0,0,0,294.478,107.5H194.524a12.843,12.843,0,0,0-12.844,12.844V225.461A12.843,12.843,0,0,0,194.524,238.3h86.718l-.125.188h49.719a5.262,5.262,0,0,0,3.786-8.917Z" transform="translate(-181.68 -107.5)" fill="#fec164"/>
      <path id="Path_11362" data-name="Path 11362" d="M227.348,158.583l-4.161-7.854,9.95-5.272a5.015,5.015,0,0,0,2.081-6.79l-8.745-16.505a5.015,5.015,0,0,0-6.79-2.081l-5.413,2.863a25.412,25.412,0,0,0-10.56,34.356l5.71,10.779,5.8,10.967,9.653,17.929a25.412,25.412,0,0,0,34.356,10.56l5.413-2.863a5.015,5.015,0,0,0,2.081-6.79l-8.745-16.521a5.015,5.015,0,0,0-6.79-2.081l-9.95,5.272-8.1-15-5.8-10.967Z" transform="translate(-170.918 -100.73)" fill="#fff"/>
    </g>
    <g id="Group_1113" data-name="Group 1113" transform="translate(334.195 160.542)">
      <path id="Path_11363" data-name="Path 11363" d="M527.008,349.343A359.993,359.993,0,0,1,566.245,298.5a12.248,12.248,0,0,0,2.691-3.77,3.989,3.989,0,0,0-.782-4.318c-1.862-1.643-4.756-.344-6.805,1.033a116.634,116.634,0,0,0-13.439,10.185q7.556-11.475,15.1-22.966a12.351,12.351,0,0,0,1.862-3.676,4.078,4.078,0,0,0-.845-3.864,4.031,4.031,0,0,0-3.833-.829,10.6,10.6,0,0,0-3.583,1.971c-6.9,5.241-12.375,12.109-17.772,18.9a233.357,233.357,0,0,0,15.754-30.507c.923-2.175,1.768-4.85.328-6.727a4.517,4.517,0,0,0-4.756-1.252,10.573,10.573,0,0,0-4.318,2.863c-8.026,7.791-12.2,18.617-16.161,29.083,2.331-9.074,4.474-17.631,5.053-26.987.141-2.237-.063-4.991-2.081-5.961a3.983,3.983,0,0,0-4.334,1.048,11.523,11.523,0,0,0-2.3,4.13q-5.233,13.517-9.825,27.284c-.563,1.674-5.444,19.822-10.013,13.6a7.8,7.8,0,0,1-1.111-3.145c-.688-3.6-1.392-7.181-2.081-10.779a11.91,11.91,0,0,0-1.909-5.225c-2.441-3.1-6.1-1.846-6.759,1.752-3,16.458,5.789,32.963,4.991,49.687A55.532,55.532,0,0,1,527.008,349.343Z" transform="translate(-80.964 -35.877)" fill="#f3aa81"/>
      <path id="Path_11364" data-name="Path 11364" d="M229.88,501.142S260.919,371.7,274.937,337.655s23.514-51.69,71.84-65.9,138.455-10.7,166.991,13.83,71.605,130.179,71.605,130.179l62.078-95.636s22.528,9.011,31.54,21.527c0,0-62.578,152.207-93.633,154.209-31.039,2-75.11-95.636-75.11-95.636l16.521,100.908Z" transform="translate(-229.88 -29.086)" fill="#226b9e"/>
      <path id="Path_11365" data-name="Path 11365" d="M285.622,319.209a215.043,215.043,0,0,1,11.17-33.339c-9.434,10.216-15.128,22.763-21.856,39.112-14.018,34.043-45.057,163.486-45.057,163.486h12.484c.125-.235,39.565-154.835,43.273-169.259Z" transform="translate(-229.88 -16.412)" fill="#1a5680"/>
      <path id="Path_11366" data-name="Path 11366" d="M577.476,316.187c-10.67,13.407-21.339,27.175-31.3,41.083-11.029,15.394-19.415,32.541-32.431,46.512-14.456,15.52-36.139,22.794-53.489,6.962-9.966-9.09-15.52-22.591-22.059-34.121-7.509-13.251-15.1-26.455-21.949-40.05-3.739-7.416-7.243-14.956-10.4-22.622-.047,3.536-.031,7.056.11,10.56.72,18.007,4.271,36.17,8.135,53.833,10.576,21.934,45.886,90.676,71.981,88.987,29.709-1.924,88.283-141.349,93.273-153.364-.61.735-1.252,1.455-1.846,2.221Z" transform="translate(-130.571 -0.562)" fill="#1a5680"/>
      <path id="Path_11367" data-name="Path 11367" d="M451.956,272.266q-12.649-5.937-25.814-10.685c-6.79-2.456-13.22-6.133-20.385-6.9a136.491,136.491,0,0,0-52.191,4.819c-18.555,5.4-35.9,12.625-53.833,20.26-4.881,2.081-10.153,4.49-12.578,9.215-3.395,6.571.172,14.612,4.693,20.479,4.459,5.789,9.887,10.81,13.971,16.865s6.774,13.626,4.834,20.667c-2.378,8.651-11.108,14.534-13.126,23.264-1.471,6.336.876,12.876,3.207,18.946q7.064,18.516,14.111,37.046c8.276,21.73,17.506,44.728,36.436,58.229,8.182,5.851,18.774,9.59,28.348,6.508,8.276-2.675,14.19-9.841,19.243-16.912,14.268-19.963,25.47-41.9,35.513-64.221,4.287-9.528,8.871-18.7,13.407-27.894,3.958-8.041,2.675-18.867-4.021-25.078-3.191-2.957-7.431-5.085-9.183-9.074-2.362-5.413.923-11.467,3.958-16.536a263.084,263.084,0,0,0,20.307-42.272c1.22-3.27,2.378-6.915,1.08-10.138-1.314-3.27-4.74-5.084-7.932-6.586Z" transform="translate(-198.31 -34.425)" fill="#214a6a"/>
      <path id="Path_11368" data-name="Path 11368" d="M331.309,255.81S304.65,380.06,315.852,505.436h91.067c.485,0-10.857-200.47-3.489-242.1l-72.122-7.525Z" transform="translate(-182.904 -33.38)" fill="#fff"/>
      <path id="Path_11369" data-name="Path 11369" d="M327.51,417.171h.954c-.094-1.658-.156-3.317-.235-4.991C327.979,413.838,327.745,415.5,327.51,417.171Z" transform="translate(-174.771 54.886)" fill="#dde1eb"/>
      <path id="Path_11370" data-name="Path 11370" d="M377.134,261.077,365.01,259.81c-6.383,40.551-5.851,82.134-4.365,123.045.986,27.347,2.487,54.631,3.113,81.994.3,12.688.375,25.266,2.613,37.782.031.172.063.36.094.532h14.143c.485,0-10.857-200.47-3.489-242.1Z" transform="translate(-156.608 -31.122)" fill="#dde1eb"/>
      <g id="Group_1109" data-name="Group 1109" transform="translate(78.261)">
        <path id="Path_11371" data-name="Path 11371" d="M393.211,218.839c.391-.282.8-.563,1.189-.829,1.518,4.521,1.126,9.418.8,14.174-.594,8.5-1.252,16.881-1.549,25.391-.266,7.838,1.252,14.847,2.847,22.591a13.01,13.01,0,0,1,.375,4.521,10.062,10.062,0,0,1-2.315,4.584c-7.963,9.9-22.184,11.937-34.9,11.53-10.576-.329-22.106-1.909-31.07-7.994-5.366-3.645-3.567-5.319-3.457-11.014A65.8,65.8,0,0,1,326,269.825c.594-3.1,5.444-28.974,1.33-28.911a115.733,115.733,0,0,0,34.512-5.992c5.413-1.8,10.9-3.927,16.114-6.117,5.4-2.268,10.4-6.492,15.269-9.95Z" transform="translate(-254.591 -54.716)" fill="#e6996f"/>
        <path id="Path_11372" data-name="Path 11372" d="M395.561,280.156c-1.58-7.728-3.113-14.737-2.847-22.591.3-8.495.954-16.9,1.549-25.391.329-4.756.72-9.653-.8-14.174-.391.266-.8.548-1.189.829-4.865,3.457-9.856,7.682-15.269,9.95-5.225,2.19-10.7,4.334-16.114,6.117a115.646,115.646,0,0,1-34.512,5.992c2.644-.047,1.6,10.576.344,19.024,13.845,6.539,31.805.219,43.711,11.906,6.821,6.7,9.934,16.1,11.906,25.548a27.518,27.518,0,0,0,11.249-8.12,10.062,10.062,0,0,0,2.315-4.584,12.646,12.646,0,0,0-.375-4.521Z" transform="translate(-253.671 -54.722)" fill="#cc835b"/>
        <path id="Path_11373" data-name="Path 11373" d="M446.857,159.076c4.365,6.7,6.977,15.394,9.215,23.029a80.958,80.958,0,0,1,3.238,22.137c.031,7.885.563,15.52-.72,23.373a77.39,77.39,0,0,1-13.016,32.1c-6.868,9.747-16.114,16.74-23.874,25.657-2.112,2.425-5.413,6.148-9.074,3.989-2.722-1.6-2.425-5.554-1.909-8.667a126.056,126.056,0,0,0-1.111-47.81c-3.285-15.081-8.057-29.443-9.856-44.947-1.111-9.606-8.213-5.523-14.44-3.426-8.088,2.738-16.943,4.6-25.282,1.783-2.769-.939-5.366-2.362-8.213-3.035a32.573,32.573,0,0,0-9.152-.391c-16.928.892-31.7,4.709-48.045-2.519-10.153-4.49-16.6-14.487-14.221-25.939,2.425-11.687,14.393-20.119,26.2-18.774,3.5.391,6.978,1.564,10.5,1.189,4.553-.485,5.835-3.9,8.495-6.868a43.423,43.423,0,0,1,10.638-8.12,61.688,61.688,0,0,1,25.782-7.916c20.651-1.737,46.433,4.083,58.511,22.325,1.627,2.472,3.066,5.163,5.413,6.962,2.049,1.58,4.615,2.3,6.978,3.348a33.379,33.379,0,0,1,13.939,12.5Z" transform="translate(-279.904 -113.633)" fill="#464559"/>
        <path id="Path_11374" data-name="Path 11374" d="M435.164,258.632c5.194-12.031,8.636-24.484,2.472-36.5-4.021-7.838-9.934-11.89-10.263-21.214-.36-10.576.986-21.23-1.439-31.665-2.456-10.607-10.138-24.077-18.508-31.133-8.2-6.9-20.15-11.389-30.4-14.018-11.311-2.894-22.919-2.863-34.5-2.081-8.26.548-16.38,2.206-24.562,3.238-.063.063-.125.141-.188.2-2.66,2.972-3.942,6.383-8.5,6.868-3.52.375-6.993-.8-10.5-1.189a21.156,21.156,0,0,0-3.723-.078c-2.237,5.163-1.846,11.452,3.958,13.439,3.473,1.189,7.854.86,11.483.814,12.312-.156,25.423-7.932,37.813-7.885,18.038.063,38.47.892,52.941,13.22,15.285,13.032,14.3,46.042,13.345,64.065a78.334,78.334,0,0,1-10.091,34.856,125.6,125.6,0,0,1-1.611,26.643c-.532,3.113-.829,7.071,1.909,8.667,3.661,2.159,6.977-1.564,9.074-3.989,6.821-7.838,14.8-14.19,21.292-22.247Z" transform="translate(-272.06 -109.153)" fill="#3c3b4d"/>
        <path id="Path_11375" data-name="Path 11375" d="M340.276,151.287c-12.75,1.893-22.34,11.014-34.841,13.548-.2.047-.438.094-.532.282a.743.743,0,0,0,0,.579c1.345,5.288,2.957,10.279,3.442,15.754a130.865,130.865,0,0,1-.72,31.868c-1.643,10.388-4.208,20.839-3.238,31.446a48.459,48.459,0,0,0,17.6,32.885c13.8,11.139,33.073,12.75,49.922,9.027,28.207-6.258,44.963-35.028,43.273-62.782a2.623,2.623,0,0,1,.469-2.1,2.33,2.33,0,0,1,1-.5c6.273-2.081,11.733-4.881,13.783-11.765a11,11,0,0,0-.532-8.432c-4.474-7.979-15.5-2.128-18.727,3.692-1.111,2-.954,3.5-3.379,4.208-4.24,1.236-6.07.907-7.682-3.411-1.94-5.178-.125-9.7-.125-14.925,0-5.523.688-9.919-2.253-14.6-1.5-2.378-3.551-4.412-4.725-6.962a19.043,19.043,0,0,1-1.33-8.386A49.851,49.851,0,0,1,394.3,145.89c-3.63,3.019-7.463,5.929-11.921,7.463-6.7,2.315-14.065,1.314-21.026-.047s-14.049-3.051-21.073-2Z" transform="translate(-266.205 -95.425)" fill="#f3aa81"/>
        <path id="Path_11376" data-name="Path 11376" d="M429.652,201.09c-4.474-7.979-15.5-2.128-18.727,3.692-1.111,2-.954,3.5-3.379,4.208-4.24,1.236-6.07.907-7.681-3.411-1.94-5.178-.125-9.7-.125-14.925,0-5.523.688-9.919-2.253-14.6-1.5-2.378-3.551-4.412-4.725-6.962a19.043,19.043,0,0,1-1.33-8.386,49.851,49.851,0,0,1,2.613-14.831c-3.63,3.019-7.462,5.929-11.921,7.462-6.7,2.315-14.065,1.314-21.026-.047s-14.049-3.051-21.073-2c-12.75,1.893-22.341,11.014-34.841,13.548-.2.047-.438.094-.532.282a.743.743,0,0,0,0,.579c.219.86.454,1.705.673,2.566a91.194,91.194,0,0,0,16.536-2.847c5.382-1.5,10.466-3.8,15.77-5.507a41.373,41.373,0,0,1,13.783-2.362c4.9.141,9.574,1.737,14.3,2.91,5.241,1.3,12.422.078,14.753,6.1,2.19,5.663,1.2,12.218,1.58,18.148.626,9.59,3.833,18.961,5.46,28.411a90.792,90.792,0,0,1,.892,26.674c-1.909,15.441-7.932,31.477-20.213,41.615a49.331,49.331,0,0,1-10.795,6.712,70.027,70.027,0,0,0,14.237-1.471c28.207-6.258,44.963-35.028,43.273-62.782a2.624,2.624,0,0,1,.469-2.1,2.331,2.331,0,0,1,1-.5c6.274-2.081,11.749-4.881,13.783-11.765a11,11,0,0,0-.532-8.432Z" transform="translate(-265.969 -95.431)" fill="#e6996f"/>
        <path id="Path_11377" data-name="Path 11377" d="M329.157,162.7c-1.611-2.644-6.461-2.55-8.886-1.518-5.616,2.378-13.8,9.058-15.645,15.113a2.875,2.875,0,0,0,.594,2.926,2.944,2.944,0,0,0,3.019.407,9.817,9.817,0,0,0,2.675-1.737,52.837,52.837,0,0,1,12.281-7.353,14.914,14.914,0,0,0,4.9-2.738c1.345-1.314,2.049-3.5,1.064-5.116Z" transform="translate(-266.037 -87.173)" fill="#464559"/>
        <path id="Path_11378" data-name="Path 11378" d="M342.838,162.01c1.611-2.644,6.461-2.55,8.886-1.518,5.616,2.378,13.8,9.058,15.645,15.113a2.91,2.91,0,0,1-.595,2.926,2.949,2.949,0,0,1-3.019.407,9.817,9.817,0,0,1-2.675-1.737,52.837,52.837,0,0,0-12.281-7.353,14.914,14.914,0,0,1-4.9-2.738c-1.345-1.314-2.049-3.5-1.079-5.116Z" transform="translate(-244.644 -87.563)" fill="#464559"/>
        <path id="Path_11379" data-name="Path 11379" d="M324.682,180.321a4.881,4.881,0,1,1-4.881-4.881A4.887,4.887,0,0,1,324.682,180.321Z" transform="translate(-260.139 -78.745)" fill="#313042"/>
        <path id="Path_11380" data-name="Path 11380" d="M349.2,180.321a4.881,4.881,0,1,1-4.881-4.881A4.887,4.887,0,0,1,349.2,180.321Z" transform="translate(-246.299 -78.745)" fill="#313042"/>
      </g>
      <path id="Path_11381" data-name="Path 11381" d="M335.3,173.184c.375,5.6.939,11.217,1.158,16.881a63.994,63.994,0,0,1-.047,8.651,22.169,22.169,0,0,1-2.722,8.511,17.011,17.011,0,0,1-2.8,3.645,26.913,26.913,0,0,1-3.489,2.722,6.49,6.49,0,0,0-2.347,2.456,3.611,3.611,0,0,0,.156,2.863,5.27,5.27,0,0,0,2.253,2.315,6.343,6.343,0,0,0,3.317.7,14.07,14.07,0,0,0,7.04-3.019h0a.787.787,0,0,1,1.126.156.8.8,0,0,1-.063,1.033,13.7,13.7,0,0,1-7.854,4.412,8.13,8.13,0,0,1-8.5-4.318,6.4,6.4,0,0,1-.2-5.335,9.334,9.334,0,0,1,3.364-3.645,25.341,25.341,0,0,0,3.192-2.425,14.009,14.009,0,0,0,2.362-3.019,21.077,21.077,0,0,0,2.5-7.447,61.93,61.93,0,0,0,.282-8.245c-.078-5.6-.313-11.233-.344-16.9a.8.8,0,0,1,.8-.814.818.818,0,0,1,.814.751Z" transform="translate(-177.973 -80.478)" fill="#cc835b"/>
      <path id="Path_11382" data-name="Path 11382" d="M333.4,213.5a90.114,90.114,0,0,0-9.5,2.863c-2.253.829-2.722.266-2.8,2.628-.047,1.267,1.189,3.16,1.83,4.193a15.111,15.111,0,0,0,6.492,5.835,15.585,15.585,0,0,0,15.144-1.3,14.872,14.872,0,0,0,5.976-8.917c.579-2.566,1.392-9.872-2.785-8.761-4.678,1.236-9.574,2.253-14.377,3.457Z" transform="translate(-178.39 -59.279)" fill="#fff"/>
      <g id="Group_1112" data-name="Group 1112" transform="translate(113.858 6.287)">
        <g id="Group_1110" data-name="Group 1110" transform="translate(92.27 78.525)">
          <circle id="Ellipse_9" data-name="Ellipse 9" cx="19.102" cy="19.102" r="19.102" transform="translate(0 27.015) rotate(-45)" fill="#e6f5ff"/>
          <circle id="Ellipse_10" data-name="Ellipse 10" cx="9.919" cy="9.919" r="9.919" transform="translate(17.105 17.093)" fill="#226b9e"/>
        </g>
        <path id="Path_11383" data-name="Path 11383" d="M420.872,212.643a4.019,4.019,0,0,1-3.817-4.005c-.063-11.061-.125-22.5-2.112-33.417-2.175-11.968-6.43-21.762-12.641-29.13a54.528,54.528,0,0,0-20.557-15.019c-9.074-3.8-18.977-5.288-28.77-5.35-14.972-.078-29.944,2.988-44.118,7.682-1.549.516-3.066,1.126-4.615,1.611a1.474,1.474,0,0,1-1.033.063,1.042,1.042,0,0,1-.548-1.048c.11-1.846,2.049-3.833,3.223-5.1,4.647-4.991,11.765-6.508,18.163-8.041a122.682,122.682,0,0,1,26.69-3.223,87.216,87.216,0,0,1,30.663,4.6,62.948,62.948,0,0,1,27.065,18.617c7.134,8.448,12,19.525,14.424,32.9,2.112,11.608,2.175,23.4,2.253,34.809a4.05,4.05,0,0,1-4.021,4.068h-.235Z" transform="translate(-302.658 -117.652)" fill="#e6f5ff"/>
        <g id="Group_1111" data-name="Group 1111" transform="translate(55.294 115.478)">
          <path id="Path_11384" data-name="Path 11384" d="M348.784,245.494a2.423,2.423,0,0,1-.751-4.725c10.826-3.536,24.312-7.932,32.384-17.616,6.915-8.292,9.371-19.712,11.546-29.772a2.424,2.424,0,1,1,4.74,1.017c-2.284,10.623-4.881,22.653-12.563,31.868-8.98,10.764-23.185,15.394-34.606,19.118a2.518,2.518,0,0,1-.751.125Z" transform="translate(-333.283 -191.465)" fill="#e6f5ff"/>
          <path id="Path_11385" data-name="Path 11385" d="M351.313,234.7l-4.146,1.142a7.234,7.234,0,0,1-8.9-5.038h0a7.234,7.234,0,0,1,5.038-8.9l4.146-1.142a7.234,7.234,0,0,1,8.9,5.038h0A7.235,7.235,0,0,1,351.313,234.7Z" transform="translate(-338.002 -175.075)" fill="#226b9e"/>
        </g>
      </g>
      <path id="Path_11386" data-name="Path 11386" d="M270.82,449.943l14.972-95.823-3.035,95.823Z" transform="translate(-206.771 22.113)" fill="#1a5680"/>
    </g>
  </g>
</svg>
