<svg xmlns="http://www.w3.org/2000/svg" xmlns:xlink="http://www.w3.org/1999/xlink" width="1603" height="602" viewBox="0 0 1603 602">
  <defs>
    <clipPath id="clip-path">
      <path id="Shape_1_copy" data-name="Shape 1 copy" d="M1601,3902s-143.036-69.959-320-14-391,58-391,58-150.578-6.8-257-26-262.739-91.225-410-72S-2,3954-2,3954V3352l1602,1" fill="#ff4363"/>
    </clipPath>
  </defs>
  <g id="Get_ypur_app_for_next_way" data-name="Get ypur app for next way" transform="translate(2 -3352)">
    <g id="BG">
      <g id="Shape_1_copy-2" data-name="Shape 1 copy">
        <path id="Shape_1_copy-3" data-name="Shape 1 copy" d="M1601,3902s-143.036-69.959-320-14-391,58-391,58-150.578-6.8-257-26-262.739-91.225-410-72S-2,3954-2,3954V3352l1602,1" fill="#e7464e"/>
      </g>
    </g>
    <g id="Text" transform="translate(801.79 3453.178)">
      <text id="حمل_التطبيق_الآن" data-name="حمل التطبيق
الآن" transform="translate(518 65)" fill="#fff" font-size="50" font-family="SegoeUI, Segoe UI"><tspan x="-264.185" y="0">حمل التطبيق</tspan><tspan y="0"></tspan><tspan x="-75.146" y="72">الآن</tspan></text>
      <text id="تطبيق_نون_فلسطين_هو_تطبيق_يشمل_جميع_احتياجات_الأسرة_وتتوفر_فيه_جميع_الأقسام_والمنتجات_حيث_يمكنك_التسوق_من_خلاله_بأقل_وقت_وجهد_وبأسعار_وخصومات_متجددة_دائما" data-name="تطبيق نون فلسطين هو تطبيق يشمل جميع  احتياجات الأسرة وتتوفر 
فيه جميع الأقسام والمنتجات حيث يمكنك التسوق من خلاله بأقل وقت
وجهد وبأسعار وخصومات متجددة دائما" transform="translate(517 203)" fill="#fff" font-size="18" font-family="SegoeUI, Segoe UI"><tspan x="-493.093" y="0" xml:space="preserve">تطبيق نون فلسطين هو تطبيق يشمل جميع  احتياجات الأسرة وتتوفر</tspan><tspan y="0"> </tspan><tspan x="-497.188" y="30">فيه جميع الأقسام والمنتجات حيث يمكنك التسوق من خلاله بأقل وقت</tspan><tspan y="30"></tspan><tspan x="-281.25" y="60">وجهد وبأسعار وخصومات متجددة دائما</tspan></text>
    </g>
  </g>
</svg>
