<svg id="Icon_ionic-md-thumbs-up" data-name="Icon ionic-md-thumbs-up" xmlns="http://www.w3.org/2000/svg" width="29.243" height="27" viewBox="0 0 29.243 27">
  <path id="Path_1" data-name="Path 1" d="M29.946,31.5H17.852a2.58,2.58,0,0,1-2.4-1.645l-4.015-9.52a2.691,2.691,0,0,1-.183-.984V16.636c0-1.484,1.2-3.136,2.658-3.136h8.381L21.023,7.77l-.042-.422a2.038,2.038,0,0,1,.584-1.427l1.42-1.42,8.859,8.951a2.707,2.707,0,0,1,.773,1.905v13.5A2.651,2.651,0,0,1,29.946,31.5Z" transform="translate(-11.25 -4.5)" fill="#ffaa8f"/>
  <path id="Path_2" data-name="Path 2" d="M7.875,15.75h-4.5V31.5h4.5Z" transform="translate(21.368 -4.5)" fill="#ffaa8f"/>
</svg>
