<svg xmlns="http://www.w3.org/2000/svg" width="26.527" height="30.317" viewBox="0 0 26.527 30.317">
  <path id="Icon_awesome-bell" data-name="Icon awesome-bell" d="M13.264,30.317a3.789,3.789,0,0,1-3.788-3.79h7.576A3.789,3.789,0,0,1,13.264,30.317ZM.51,21.452c1.144-1.229,3.285-3.078,3.285-9.136A9.351,9.351,0,0,1,11.37,3.129V1.895a1.894,1.894,0,1,1,3.787,0V3.129a9.351,9.351,0,0,1,7.576,9.187c0,6.057,2.141,7.907,3.285,9.136a1.85,1.85,0,0,1,.51,1.286,1.9,1.9,0,0,1-1.9,1.895H1.9A1.9,1.9,0,0,1,0,22.738a1.849,1.849,0,0,1,.51-1.286Z" transform="translate(0)" fill="#ff7588"/>
</svg>
