<svg xmlns="http://www.w3.org/2000/svg" width="34.687" height="33.938" viewBox="0 0 34.687 33.938">
  <path id="Path_11157" data-name="Path 11157" d="M2.65,15.2a14.345,14.345,0,0,1,28.673,0,3.374,3.374,0,0,1,2.008,3.081v3.785a3.375,3.375,0,0,1-3.371,3.371,2.184,2.184,0,0,1-2.181-2.181V17.086a2.177,2.177,0,0,1,1.968-2.16,12.782,12.782,0,0,0-25.516,0,2.177,2.177,0,0,1,1.965,2.159V23.25A2.176,2.176,0,0,1,4.2,25.412V26.97a3.185,3.185,0,0,0,3.182,3.181H9.739a2.342,2.342,0,0,1,2.224-1.583h2.429a2.332,2.332,0,0,1,.99.217,2.37,2.37,0,0,1,1.376,2.148A2.369,2.369,0,0,1,14.392,33.3H11.963a2.375,2.375,0,0,1-2.226-1.584H7.383A4.751,4.751,0,0,1,2.637,26.97V25.134A3.374,3.374,0,0,1,.643,22.06V18.275A3.374,3.374,0,0,1,2.65,15.2Zm26.692,1.89V23.25a.618.618,0,0,0,.618.618,1.81,1.81,0,0,0,1.808-1.808V18.275a1.809,1.809,0,0,0-1.808-1.808A.618.618,0,0,0,29.342,17.086ZM11.179,31.1a.806.806,0,0,0,.785.635h2.429a.8.8,0,0,0,.333-1.531.777.777,0,0,0-.333-.072H11.964a.805.805,0,0,0-.785.968ZM2.207,22.06a1.81,1.81,0,0,0,1.808,1.808.618.618,0,0,0,.618-.618V17.086a.618.618,0,0,0-.618-.618,1.81,1.81,0,0,0-1.808,1.808Z" transform="translate(0.357 -0.361)" fill="#fdd23e" stroke="#fdd23e" stroke-width="2"/>
</svg>
